<svg viewBox="0 0 24 24" xmlns="http://www.w3.org/2000/svg">
  <path
    d="M22 12.6747L22 11.3844C22 11.0281 21.7112 10.7392 21.3548 10.7392L6.29679 10.7392L12.0387 5.01019C12.1609 4.88905 12.2296 4.72415 12.2296 4.55213C12.2296 4.38011 12.1609 4.21521 12.0387 4.09407L11.1226 3.19084C11.0015 3.0687 10.8366 3 10.6645 3C10.4925 3 10.3276 3.0687 10.2065 3.19084L2.28389 11.1005C2.10236 11.2818 2.00025 11.5278 2.00002 11.7844L2.00002 12.2747C2.003 12.5307 2.10469 12.7757 2.28389 12.9586L10.2065 20.8683C10.3276 20.9904 10.4925 21.0591 10.6645 21.0591C10.8366 21.0591 11.0015 20.9904 11.1226 20.8683L12.0387 19.9521C12.1601 19.8332 12.2285 19.6704 12.2285 19.5005C12.2285 19.3306 12.1601 19.1678 12.0387 19.0489L6.29679 13.3199L21.3548 13.3199C21.7112 13.3199 22 13.031 22 12.6747Z" />
</svg>