<svg viewBox="0 0 24 24" xmlns="http://www.w3.org/2000/svg">
  <path
    d="M4.30504 18.2444C3.9187 17.8584 3.9187 17.3834 4.30504 16.9974L9.32739 11.9795L4.30504 6.96171C3.9187 6.57572 3.88899 6.13035 4.27532 5.74436L5.73151 4.28949C6.11784 3.9035 6.59333 3.9035 6.97967 4.28949L12.002 9.30732L16.9947 4.31918C17.381 3.93319 17.8268 3.96289 18.2131 4.34887L19.6693 5.80375C20.0853 6.21942 20.0853 6.6351 19.699 7.02109L14.7064 12.0092L19.699 16.9974C20.1151 17.413 20.0853 17.8584 19.699 18.2444L18.2428 19.6993C17.8565 20.0853 17.4404 20.0853 17.0244 19.6696L12.0317 14.6814L7.00938 19.6993C6.62305 20.0853 6.17728 20.115 5.76123 19.6993L4.30504 18.2444Z" />
</svg>