<svg viewBox="0 0 24 24" xmlns="http://www.w3.org/2000/svg">
  <path
    d="M21.0909 20.1815H2.90909C2.36364 20.1815 2 20.5451 2 21.0906C2 21.636 2.36364 21.9996 2.90909 21.9996H21.0909C21.6364 21.9996 22 21.636 22 21.0906C22 20.5451 21.6364 20.1815 21.0909 20.1815Z" />
  <path
    d="M11.364 18.2728C11.5458 18.4546 11.8186 18.5455 12.0004 18.5455C12.1822 18.5455 12.4549 18.4546 12.6367 18.2728L19.0913 11.8182C19.4549 11.4546 19.4549 10.9091 19.0913 10.5455C18.7277 10.1818 18.1822 10.1818 17.8186 10.5455L12.9095 15.4546V2.90909C12.9095 2.36364 12.5458 2 12.0004 2C11.4549 2 11.0913 2.36364 11.0913 2.90909V15.4546L6.18218 10.5455C5.81854 10.1818 5.27309 10.1818 4.90945 10.5455C4.54581 10.9091 4.54581 11.4546 4.90945 11.8182L11.364 18.2728Z" />
</svg>