<svg width="18" height="18" viewBox="0 0 18 18" xmlns="http://www.w3.org/2000/svg">
  <path
    d="M17.1818 16.3638H0.818182C0.327273 16.3638 0 16.691 0 17.182C0 17.6729 0.327273 18.0001 0.818182 18.0001H17.1818C17.6727 18.0001 18 17.6729 18 17.182C18 16.691 17.6727 16.3638 17.1818 16.3638Z"
  />
  <path
    d="M8.42759 14.6455C8.59123 14.8091 8.83668 14.8909 9.00032 14.8909C9.16396 14.8909 9.40941 14.8091 9.57305 14.6455L15.3821 8.83636C15.7094 8.50909 15.7094 8.01818 15.3821 7.69091C15.0549 7.36364 14.564 7.36364 14.2367 7.69091L9.8185 12.1091V0.818182C9.8185 0.327273 9.49123 0 9.00032 0C8.50941 0 8.18214 0.327273 8.18214 0.818182V12.1091L3.76396 7.69091C3.43668 7.36364 2.94577 7.36364 2.6185 7.69091C2.29123 8.01818 2.29123 8.50909 2.6185 8.83636L8.42759 14.6455Z" />
</svg>