<svg viewBox="0 0 24 24" xmlns="http://www.w3.org/2000/svg">
  <path
    d="M12 2C10.6261 2 9.33022 2.26698 8.11241 2.80094C6.89461 3.3192 5.83295 4.03376 4.9274 4.94464C4.02185 5.85552 3.31148 6.92343 2.79625 8.14841C2.26541 9.37339 2 10.6769 2 12.0589C2 13.3153 2.21858 14.501 2.65574 15.616C3.0929 16.7468 3.68618 17.7519 4.4356 18.6313C5.18502 19.5108 6.07494 20.2411 7.10539 20.8221C8.13584 21.4032 9.24433 21.7958 10.4309 22V14.9564H7.90164V12.0589H10.4309V9.84452C10.4309 8.58814 10.7744 7.6223 11.4614 6.947C12.1483 6.27169 13.0695 5.93404 14.2248 5.93404C14.7713 5.93404 15.2787 5.96545 15.7471 6.02827C16.2155 6.09109 16.4496 6.1225 16.4496 6.1225V8.596H15.185C14.5605 8.596 14.1351 8.76089 13.9087 9.0907C13.6823 9.4205 13.5691 9.7817 13.5691 10.1743V12.0589H16.3326L15.8876 14.9564H13.5691V21.9764C14.7557 21.788 15.8642 21.4032 16.8946 20.8221C17.9251 20.2411 18.8189 19.5108 19.5761 18.6313C20.3333 17.7519 20.9227 16.7468 21.3443 15.616C21.7814 14.501 22 13.3153 22 12.0589C22 10.6769 21.7346 9.37339 21.2037 8.14841C20.6885 6.92343 19.9781 5.85552 19.0726 4.94464C18.1671 4.03376 17.1054 3.3192 15.8876 2.80094C14.6698 2.26698 13.3739 2 12 2Z" />
</svg>