<svg viewBox="0 0 24 24" xmlns="http://www.w3.org/2000/svg">
  <path fill-rule="evenodd" clip-rule="evenodd"
    d="M12 1C16.7254 1.00015 20.5559 4.69352 20.5559 9.25007C20.5559 11.9833 19.7447 13.0971 15.8634 18.429C15.0194 19.5867 14.0332 20.9426 12.8783 22.5566C12.4563 23.1478 11.5466 23.1478 11.1217 22.5566C9.9638 20.9424 8.97661 19.5868 8.13531 18.429C4.25409 13.0972 3.44414 11.9833 3.44409 9.25007C3.44409 4.69343 7.27444 1 12 1ZM12 5.88837C9.97494 5.88837 8.33372 7.53085 8.33372 9.55591C8.33388 11.5808 9.97504 13.2222 12 13.2222C14.0249 13.2221 15.6661 11.5808 15.6663 9.55591C15.6663 7.53092 14.025 5.88848 12 5.88837Z" />
</svg>