<svg viewBox="0 0 24 24" xmlns="http://www.w3.org/2000/svg">
  <path
    d="M23.0049 3.27741V21.197C22.7351 21.732 22.4263 21.8067 21.8901 21.5322C21.3699 21.2659 20.8395 21.0064 20.2889 20.8158C18.7194 20.2727 17.1085 20.2939 15.4965 20.5793C14.7163 20.7176 13.9464 20.9151 13.1737 21.0954C12.7362 21.1975 12.4813 21.0902 12.2775 20.6883C12.2322 20.5993 12.188 20.5092 12.1432 20.4197C11.9882 20.1097 11.8332 19.7996 11.6627 19.4586C11.6059 19.5643 11.568 19.6303 11.5335 19.6986C11.2327 20.2997 10.9239 20.8967 10.6351 21.5035C10.5042 21.7785 10.3113 21.9398 10.0179 22.0139C9.49839 22.1448 8.98516 22.3009 8.46503 22.4313C7.10789 22.7711 5.73697 23.0174 4.33103 22.999C2.53012 22.9755 1.01108 21.4731 1.00706 19.6739C0.996153 14.5622 0.999598 9.45 1.00591 4.33775C1.00763 2.98921 1.87279 1.74918 3.13233 1.25604C3.41536 1.14524 3.71733 1.08382 4.01069 1C4.26845 1 4.52622 1 4.78456 1C4.82474 1.0132 4.86378 1.03157 4.90454 1.03789C5.90632 1.19806 6.69914 1.69637 7.24739 2.54602C7.4644 2.88243 7.60448 3.26879 7.79737 3.66951C8.62635 3.43643 9.4938 3.20048 10.3567 2.94903C12.2155 2.40709 14.0624 1.8175 15.9953 1.58098C16.3926 1.53218 16.6199 1.63781 16.7996 1.99432C17.1211 2.63271 17.4392 3.27281 17.7595 3.91177C17.7922 3.97664 17.8284 4.03979 17.8766 4.12935C18.228 3.42667 18.5615 2.75556 18.8997 2.08617C19.0747 1.73942 19.3354 1.62174 19.7149 1.70441C20.7075 1.92026 21.6415 2.28366 22.5256 2.78369C22.7397 2.90482 22.9079 3.05121 23.0038 3.27798L23.0049 3.27741ZM13.2466 19.7405C16.0993 19.0005 18.9186 18.6997 21.7155 19.9839V19.6975C21.7155 14.5766 21.7092 9.45631 21.7276 4.33545C21.7293 3.91177 21.6151 3.68386 21.2201 3.55239C20.7631 3.39969 20.3188 3.20966 19.8664 3.03514C19.3945 3.97779 18.9427 4.8705 18.5012 5.76837C18.3703 6.03475 18.1878 6.21731 17.8812 6.22075C17.5643 6.2242 17.3766 6.03819 17.2423 5.76435C16.81 4.88542 16.3605 4.01453 15.9345 3.13216C15.8449 2.94673 15.7508 2.89793 15.5602 2.94271C14.656 3.15512 13.7426 3.33309 12.8453 3.57306C11.2643 3.99674 9.6953 4.46519 8.11541 4.89231C7.872 4.95833 7.81 5.04215 7.81057 5.28499C7.81861 9.99021 7.81746 14.6954 7.81459 19.4007C7.81459 19.6504 7.81746 19.9081 7.75948 20.1475C7.66016 20.5586 7.51377 20.9587 7.38288 21.3749C8.00347 21.213 8.65046 21.0374 9.30205 20.8784C9.48059 20.8347 9.57532 20.7429 9.65397 20.5816C10.1138 19.6441 10.5846 18.7123 11.0536 17.7794C11.2097 17.4694 11.4336 17.3362 11.7385 17.3718C11.998 17.4023 12.1581 17.5596 12.2707 17.7869C12.5904 18.4339 12.9159 19.078 13.2472 19.7399L13.2466 19.7405ZM6.52749 16.9068C6.52749 16.8023 6.52749 16.7197 6.52749 16.637C6.52749 12.6213 6.52749 8.60551 6.52691 4.59034C6.52691 4.46175 6.52117 4.33258 6.51084 4.20456C6.42817 3.17981 5.55441 2.33992 4.52564 2.29342C3.2816 2.23716 2.29417 3.19129 2.29302 4.46462C2.29015 8.55155 2.29187 12.6391 2.29187 16.726C2.29187 16.7794 2.29187 16.8328 2.29187 16.9091C3.70987 15.9533 5.1026 15.9521 6.52749 16.9074V16.9068ZM6.52347 19.5643C6.49304 18.3834 5.53259 17.4511 4.37753 17.4809C3.18056 17.5119 2.26087 18.4781 2.29417 19.6699C2.32631 20.8158 3.30456 21.7372 4.46135 21.7114C5.61354 21.6855 6.55332 20.7073 6.52347 19.5643Z" />
  <path
    d="M15.2451 13.3841C14.9385 13.0798 14.6532 12.7997 14.3707 12.5161C14.0584 12.2021 14.036 11.8214 14.3099 11.547C14.5814 11.2755 14.9695 11.2967 15.2789 11.6039C15.5631 11.8857 15.8438 12.1711 16.1452 12.4748C16.4506 12.1682 16.7463 11.8725 17.0414 11.5752C17.2148 11.4001 17.4209 11.318 17.6643 11.3737C18.1517 11.4856 18.3337 12.0637 17.9932 12.438C17.7624 12.6918 17.5121 12.9283 17.2664 13.1683C17.2004 13.2325 17.1206 13.2825 17.0253 13.356C17.3611 13.6895 17.6602 13.9846 17.957 14.2814C18.1649 14.4892 18.2246 14.7367 18.1155 15.0094C17.9484 15.4267 17.422 15.5381 17.0833 15.2241C16.8209 14.9812 16.5723 14.7229 16.3232 14.4663C16.2692 14.4106 16.2377 14.3336 16.1802 14.2424C15.8243 14.604 15.5264 14.9118 15.2215 15.2132C15.0321 15.4009 14.8013 15.4508 14.5493 15.3636C14.3024 15.2786 14.1652 15.0955 14.1285 14.8417C14.0969 14.6207 14.179 14.4353 14.3363 14.2808C14.6319 13.9898 14.927 13.6981 15.2445 13.3841H15.2451Z" />
</svg>