<svg iewBox="0 0 24 24" xmlns="http://www.w3.org/2000/svg">
  <path
    d="M6.91176 5.4C6.29706 5.4 5.77083 5.18458 5.33309 4.75375C4.89534 4.32292 4.67647 3.805 4.67647 3.2C4.67647 2.595 4.89534 2.07708 5.33309 1.64625C5.77083 1.21542 6.29706 1 6.91176 1C7.52647 1 8.0527 1.21542 8.49044 1.64625C8.92819 2.07708 9.14706 2.595 9.14706 3.2C9.14706 3.805 8.92819 4.32292 8.49044 4.75375C8.0527 5.18458 7.52647 5.4 6.91176 5.4ZM18.6471 10.9C18.1814 10.9 17.7855 10.7396 17.4596 10.4187C17.1336 10.0979 16.9706 9.70833 16.9706 9.25C16.9706 8.79167 17.1336 8.40208 17.4596 8.08125C17.7855 7.76042 18.1814 7.6 18.6471 7.6C19.1127 7.6 19.5086 7.76042 19.8346 8.08125C20.1605 8.40208 20.3235 8.79167 20.3235 9.25C20.3235 9.70833 20.1605 10.0979 19.8346 10.4187C19.5086 10.7396 19.1127 10.9 18.6471 10.9ZM4.67647 23V15.3H3V8.7C3 8.095 3.21887 7.57708 3.65662 7.14625C4.09436 6.71542 4.62059 6.5 5.23529 6.5H8.58824C8.99804 6.5 9.37059 6.59625 9.70588 6.78875C10.0412 6.98125 10.3113 7.25167 10.5162 7.6L14.5118 14.3925L15.6574 12.715C15.8064 12.495 16.0066 12.3208 16.2581 12.1925C16.5096 12.0642 16.775 12 17.0544 12H20.3235C20.7892 12 21.185 12.1604 21.511 12.4812C21.837 12.8021 22 13.1917 22 13.65V17.5H20.8824V23H16.4118V15.19L15.5456 16.4H13.0868L10.2647 11.56V23H4.67647Z" />
</svg>