<svg viewBox="0 0 24 24" xmlns="http://www.w3.org/2000/svg">
  <path
    d="M21.8164 10.4985L21.9697 10.5063C22.726 10.5833 23.3164 11.222 23.3164 11.9985C23.3164 12.7751 22.726 13.4138 21.9697 13.4907L21.8164 13.4985H2.17969C1.35126 13.4985 0.679688 12.827 0.679688 11.9985C0.679688 11.1701 1.35126 10.4985 2.17969 10.4985H21.8164Z"
  />
  <path
    d="M13.498 21.8169L13.4902 21.9702C13.4133 22.7264 12.7746 23.3169 11.998 23.3169C11.2215 23.3169 10.5828 22.7264 10.5059 21.9702L10.498 21.8169L10.498 2.18018C10.498 1.35175 11.1696 0.680176 11.998 0.680176C12.8265 0.680176 13.498 1.35175 13.498 2.18018L13.498 21.8169Z"
  />
</svg>