<svg width="23" height="13" viewBox="0 0 23 13" fill="none" xmlns="http://www.w3.org/2000/svg">
<path d="M2.65044 7.30678C2.57669 6.66507 2.54104 5.99429 2.54371 5.29899C2.07908 5.26041 -0.429917 4.95105 0.0641006 2.79573C1.84809 2.99767 2.39588 3.95307 2.558 4.62457C2.57356 4.21588 2.60178 3.79945 2.64266 3.37634C2.40575 2.92954 1.62814 1.14796 3.56937 0C4.78212 1.96909 3.33781 3.08973 2.85088 3.39487C2.80559 3.8636 2.77597 4.32377 2.76192 4.77432C3.04737 4.17143 3.69108 3.25825 4.96747 3.27537C5.05143 5.10913 3.69352 5.49295 2.75263 5.33124C2.75112 6.01727 2.78724 6.67868 2.86121 7.31112C2.87585 7.43624 2.89199 7.5602 2.90964 7.6831C3.0519 7.10226 3.46811 6.17559 4.67795 6.11648C4.8259 7.55997 3.43548 8.0097 2.97885 8.11794C3.10776 8.85405 3.29089 9.54512 3.52617 10.1804C3.5321 10.1962 3.53802 10.2119 3.54383 10.2276C3.47926 9.6251 3.52292 8.64753 4.3615 8.19182C5.15467 9.40827 4.05306 10.4115 3.72383 10.6721C4.21343 11.7973 4.71105 12.3172 4.71732 12.3236C4.75785 12.3651 4.75739 12.4319 4.71628 12.4728C4.69595 12.4931 4.66936 12.5033 4.64288 12.5033C4.6164 12.5033 4.589 12.4928 4.56856 12.4718C4.54464 12.4473 4.04133 11.9243 3.53941 10.7736C3.09092 10.9642 1.58308 11.0133 1.39611 9.56459C2.41748 9.5192 2.99976 9.88204 3.3147 10.2106C3.07989 9.56776 2.89663 8.87035 2.76819 8.12838C2.24003 8.18162 0.343974 8.23662 0.312968 6.28817C1.70444 6.13607 2.3514 6.7508 2.65044 7.3069V7.30678Z" fill="#DD6347"/>
<path d="M10.762 10.9006C9.51642 10.9006 8.4875 10.5757 7.75642 10.0748C7.48565 9.88525 7.47211 9.61448 7.67519 9.37079L7.9595 9.01879C8.16258 8.77509 8.40627 8.74802 8.67704 8.91048C9.38104 9.31663 9.92258 9.4114 10.6807 9.4114C12.2106 9.4114 12.9552 8.45017 12.9552 7.57017C12.9552 6.58186 12.1158 5.90494 11.0327 5.90494C10.8161 5.90494 10.4506 5.93202 10.1121 6.08094C9.82781 6.18925 9.61119 6.16217 9.42165 5.91848L9.28627 5.72894C9.09673 5.48525 9.11027 5.24156 9.3675 5.02494L11.845 2.70986H8.32504C8.00011 2.70986 7.82411 2.52032 7.82411 2.20894V1.77571C7.82411 1.46432 8.00011 1.27479 8.32504 1.27479H13.8487C14.1737 1.27479 14.3632 1.46432 14.3632 1.77571V1.93817C14.3632 2.1954 14.2684 2.38494 14.0789 2.56094L11.5878 4.76771C11.7909 4.76771 11.9804 4.78125 12.1564 4.82186C13.5103 5.02494 14.6881 5.98617 14.6881 7.59725C14.6881 9.43848 13.2937 10.9006 10.762 10.9006Z" fill="#DD6347"/>
<path d="M19.7534 7.30678C19.8271 6.66507 19.8628 5.99429 19.8601 5.29899C20.3247 5.26041 22.8337 4.95105 22.3397 2.79573C20.5557 2.99767 20.0079 3.95307 19.8458 4.62457C19.8302 4.21588 19.802 3.79945 19.7611 3.37634C19.998 2.92954 20.7757 1.14796 18.8344 0C17.6217 1.96909 19.066 3.08973 19.5529 3.39487C19.5982 3.8636 19.6278 4.32377 19.6419 4.77432C19.3564 4.17143 18.7127 3.25825 17.4363 3.27537C17.3524 5.10913 18.7103 5.49295 19.6512 5.33124C19.6527 6.01727 19.6166 6.67868 19.5426 7.31112C19.528 7.43624 19.5118 7.5602 19.4942 7.6831C19.3519 7.10226 18.9357 6.17559 17.7258 6.11648C17.5779 7.55997 18.9683 8.0097 19.4249 8.11794C19.296 8.85405 19.1129 9.54512 18.8776 10.1804C18.8717 10.1962 18.8658 10.2119 18.86 10.2276C18.9245 9.6251 18.8809 8.64753 18.0423 8.19182C17.2491 9.40827 18.3507 10.4115 18.68 10.6721C18.1904 11.7973 17.6927 12.3172 17.6865 12.3236C17.6459 12.3651 17.6464 12.4319 17.6875 12.4728C17.7078 12.4931 17.7344 12.5033 17.7609 12.5033C17.7874 12.5033 17.8148 12.4928 17.8352 12.4718C17.8592 12.4473 18.3625 11.9243 18.8644 10.7736C19.3129 10.9642 20.8207 11.0133 21.0077 9.56459C19.9863 9.5192 19.404 9.88204 19.0891 10.2106C19.3239 9.56776 19.5072 8.87035 19.6356 8.12838C20.1638 8.18162 22.0598 8.23662 22.0908 6.28817C20.6994 6.13607 20.0524 6.7508 19.7534 7.3069V7.30678Z" fill="#DD6347"/>
</svg>
