<svg width="21" height="13" viewBox="0 0 21 13" fill="none" xmlns="http://www.w3.org/2000/svg">
<path d="M2.65044 7.30678C2.57669 6.66507 2.54104 5.99429 2.54371 5.29899C2.07908 5.26041 -0.429917 4.95105 0.0641006 2.79573C1.84809 2.99767 2.39588 3.95307 2.558 4.62457C2.57356 4.21588 2.60178 3.79945 2.64266 3.37634C2.40575 2.92954 1.62814 1.14796 3.56937 0C4.78212 1.96909 3.33781 3.08973 2.85088 3.39487C2.80559 3.8636 2.77597 4.32377 2.76192 4.77432C3.04737 4.17143 3.69108 3.25825 4.96747 3.27537C5.05143 5.10913 3.69352 5.49295 2.75263 5.33124C2.75112 6.01727 2.78724 6.67868 2.86121 7.31112C2.87585 7.43624 2.89199 7.5602 2.90964 7.6831C3.0519 7.10226 3.46811 6.17559 4.67795 6.11648C4.8259 7.55997 3.43548 8.0097 2.97885 8.11794C3.10776 8.85405 3.29089 9.54512 3.52617 10.1804C3.5321 10.1962 3.53802 10.2119 3.54383 10.2276C3.47926 9.6251 3.52292 8.64753 4.3615 8.19182C5.15467 9.40827 4.05306 10.4115 3.72383 10.6721C4.21343 11.7973 4.71105 12.3172 4.71732 12.3236C4.75785 12.3651 4.75739 12.4319 4.71628 12.4728C4.69595 12.4931 4.66936 12.5033 4.64288 12.5033C4.6164 12.5033 4.589 12.4928 4.56856 12.4718C4.54464 12.4473 4.04133 11.9243 3.53941 10.7736C3.09092 10.9642 1.58308 11.0133 1.39611 9.56459C2.41748 9.5192 2.99976 9.88204 3.3147 10.2106C3.07989 9.56776 2.89663 8.87035 2.76819 8.12838C2.24003 8.18162 0.343974 8.23662 0.312968 6.28817C1.70444 6.13607 2.3514 6.7508 2.65044 7.3069V7.30678Z" fill="#E9C400"/>
<path d="M10.7952 12C10.3632 12 10.1232 11.76 10.1232 11.328V3.152L8.33119 3.936C7.91519 4.112 7.59519 3.952 7.46719 3.536L7.35519 3.184C7.22719 2.784 7.37119 2.48 7.73919 2.304L10.6672 0.976C10.9712 0.848 11.2112 0.799999 11.6112 0.799999C11.9792 0.799999 12.1872 1.04 12.1872 1.472V11.328C12.1872 11.76 11.9472 12 11.5152 12H10.7952Z" fill="#E9C400"/>
<path d="M18.2919 7.30678C18.3657 6.66507 18.4013 5.99429 18.3987 5.29899C18.8633 5.26041 21.3723 4.95105 20.8783 2.79573C19.0943 2.99767 18.5465 3.95307 18.3844 4.62457C18.3688 4.21588 18.3406 3.79945 18.2997 3.37634C18.5366 2.92954 19.3142 1.14796 17.373 0C16.1602 1.96909 17.6046 3.08973 18.0915 3.39487C18.1368 3.8636 18.1664 4.32377 18.1804 4.77432C17.895 4.17143 17.2513 3.25825 15.9749 3.27537C15.8909 5.10913 17.2489 5.49295 18.1897 5.33124C18.1913 6.01727 18.1551 6.67868 18.0812 7.31112C18.0665 7.43624 18.0504 7.5602 18.0327 7.6831C17.8905 7.10226 17.4743 6.17559 16.2644 6.11648C16.1165 7.55997 17.5069 8.0097 17.9635 8.11794C17.8346 8.85405 17.6515 9.54512 17.4162 10.1804C17.4103 10.1962 17.4044 10.2119 17.3985 10.2276C17.4631 9.6251 17.4194 8.64753 16.5809 8.19182C15.7877 9.40827 16.8893 10.4115 17.2185 10.6721C16.7289 11.7973 16.2313 12.3172 16.2251 12.3236C16.1845 12.3651 16.185 12.4319 16.2261 12.4728C16.2464 12.4931 16.273 12.5033 16.2995 12.5033C16.326 12.5033 16.3534 12.4928 16.3738 12.4718C16.3977 12.4473 16.901 11.9243 17.403 10.7736C17.8515 10.9642 19.3593 11.0133 19.5463 9.56459C18.5249 9.5192 17.9426 9.88204 17.6277 10.2106C17.8625 9.56776 18.0457 8.87035 18.1742 8.12838C18.7023 8.18162 20.5984 8.23662 20.6294 6.28817C19.2379 6.13607 18.591 6.7508 18.2919 7.3069V7.30678Z" fill="#E9C400"/>
</svg>
