<svg width="24" height="13" viewBox="0 0 24 13" fill="none" xmlns="http://www.w3.org/2000/svg">
<path d="M2.65044 7.30678C2.57669 6.66507 2.54104 5.99429 2.54371 5.29899C2.07908 5.26041 -0.429917 4.95105 0.0641006 2.79573C1.84809 2.99767 2.39588 3.95307 2.558 4.62457C2.57356 4.21588 2.60178 3.79945 2.64266 3.37634C2.40575 2.92954 1.62814 1.14796 3.56937 0C4.78212 1.96909 3.33781 3.08973 2.85088 3.39487C2.80559 3.8636 2.77597 4.32377 2.76192 4.77432C3.04737 4.17143 3.69108 3.25825 4.96747 3.27537C5.05143 5.10913 3.69352 5.49295 2.75263 5.33124C2.75112 6.01727 2.78724 6.67868 2.86121 7.31112C2.87585 7.43624 2.89199 7.5602 2.90964 7.6831C3.0519 7.10226 3.46811 6.17559 4.67795 6.11648C4.8259 7.55997 3.43548 8.0097 2.97885 8.11794C3.10776 8.85405 3.29089 9.54512 3.52617 10.1804C3.5321 10.1962 3.53802 10.2119 3.54383 10.2276C3.47926 9.6251 3.52292 8.64753 4.3615 8.19182C5.15467 9.40827 4.05306 10.4115 3.72383 10.6721C4.21343 11.7973 4.71105 12.3172 4.71732 12.3236C4.75785 12.3651 4.75739 12.4319 4.71628 12.4728C4.69595 12.4931 4.66936 12.5033 4.64288 12.5033C4.6164 12.5033 4.589 12.4928 4.56856 12.4718C4.54464 12.4473 4.04133 11.9243 3.53941 10.7736C3.09092 10.9642 1.58308 11.0133 1.39611 9.56459C2.41748 9.5192 2.99976 9.88204 3.3147 10.2106C3.07989 9.56776 2.89663 8.87035 2.76819 8.12838C2.24003 8.18162 0.343974 8.23662 0.312968 6.28817C1.70444 6.13607 2.3514 6.7508 2.65044 7.3069V7.30678Z" fill="#97A3A9"/>
<path d="M8.57119 12C8.15519 12 7.91519 11.792 7.83519 11.392L7.81919 11.232C7.75519 10.88 7.85119 10.608 8.12319 10.352L12.2032 6.672C13.0672 5.92 13.7392 5.152 13.7392 4.16C13.7392 3.024 12.9072 2.368 11.7072 2.368C10.5232 2.368 9.99519 2.896 9.80319 3.456C9.65919 3.84 9.48319 4.048 9.08319 4.048H8.37919C7.93119 4.048 7.64319 3.792 7.75519 3.344C8.01119 2.032 9.11519 0.624 11.7392 0.624C14.1552 0.624 15.7552 2 15.7552 4.16C15.7552 5.824 14.7472 6.96 13.6912 7.872L10.8752 10.32L10.8912 10.384C11.4832 10.32 13.1472 10.304 13.3072 10.304H15.5472C15.9792 10.304 16.2192 10.544 16.2192 10.976V11.328C16.2192 11.76 15.9792 12 15.5472 12H8.57119Z" fill="#97A3A9"/>
<path d="M21.2919 7.30678C21.3657 6.66507 21.4013 5.99429 21.3987 5.29899C21.8633 5.26041 24.3723 4.95105 23.8783 2.79573C22.0943 2.99767 21.5465 3.95307 21.3844 4.62457C21.3688 4.21588 21.3406 3.79945 21.2997 3.37634C21.5366 2.92954 22.3142 1.14796 20.373 0C19.1602 1.96909 20.6046 3.08973 21.0915 3.39487C21.1368 3.8636 21.1664 4.32377 21.1804 4.77432C20.895 4.17143 20.2513 3.25825 18.9749 3.27537C18.8909 5.10913 20.2489 5.49295 21.1897 5.33124C21.1913 6.01727 21.1551 6.67868 21.0812 7.31112C21.0665 7.43624 21.0504 7.5602 21.0327 7.6831C20.8905 7.10226 20.4743 6.17559 19.2644 6.11648C19.1165 7.55997 20.5069 8.0097 20.9635 8.11794C20.8346 8.85405 20.6515 9.54512 20.4162 10.1804C20.4103 10.1962 20.4044 10.2119 20.3985 10.2276C20.4631 9.6251 20.4194 8.64753 19.5809 8.19182C18.7877 9.40827 19.8893 10.4115 20.2185 10.6721C19.7289 11.7973 19.2313 12.3172 19.2251 12.3236C19.1845 12.3651 19.185 12.4319 19.2261 12.4728C19.2464 12.4931 19.273 12.5033 19.2995 12.5033C19.326 12.5033 19.3534 12.4928 19.3738 12.4718C19.3977 12.4473 19.901 11.9243 20.403 10.7736C20.8515 10.9642 22.3593 11.0133 22.5463 9.56459C21.5249 9.5192 20.9426 9.88204 20.6277 10.2106C20.8625 9.56776 21.0457 8.87035 21.1742 8.12838C21.7023 8.18162 23.5984 8.23662 23.6294 6.28817C22.2379 6.13607 21.591 6.7508 21.2919 7.3069V7.30678Z" fill="#97A3A9"/>
</svg>
