<svg width="20" height="20" viewBox="0 0 20 20" xmlns="http://www.w3.org/2000/svg">
  <path
    d="M16.2519 7.50023C18.319 7.50023 20 5.81831 20 3.75012C20 1.68193 18.319 0 16.2519 0C14.1848 0 12.5037 1.68193 12.5037 3.75012C12.5037 4.02575 12.5356 4.29388 12.5925 4.55327L6.67729 7.66711C5.98951 6.80521 4.93316 6.2502 3.74813 6.2502C1.68103 6.2502 0 7.93212 0 10.0003C0 12.0685 1.68103 13.7504 3.74813 13.7504C4.93628 13.7504 5.9945 13.1929 6.68166 12.3273L12.1745 15.2186C12.1183 15.4842 12.0871 15.7592 12.0871 16.0411C12.0871 18.2237 13.8618 20 16.0432 20C18.2246 20 19.9994 18.2237 19.9994 16.0411C19.9994 13.8586 18.2246 12.0829 16.0432 12.0829C14.8145 12.0829 13.7144 12.6466 12.9885 13.5285L7.44128 10.6085C7.47376 10.4097 7.495 10.2072 7.495 9.99906C7.495 9.78843 7.47314 9.5828 7.44003 9.38154L13.4414 6.22269C14.1298 7.00459 15.1331 7.50023 16.2519 7.50023ZM16.0439 13.9586C17.192 13.9586 18.1259 14.893 18.1259 16.0418C18.1259 17.1905 17.192 18.1256 16.0439 18.1256C14.8957 18.1256 13.9618 17.1905 13.9618 16.0418C13.9618 14.893 14.8957 13.9586 16.0439 13.9586ZM3.74813 11.8754C2.71489 11.8754 1.87406 11.0341 1.87406 10.0003C1.87406 8.96653 2.71489 8.12525 3.74813 8.12525C4.78136 8.12525 5.62219 8.96653 5.62219 10.0003C5.62219 11.0341 4.78136 11.8754 3.74813 11.8754ZM16.2519 1.87506C17.2851 1.87506 18.1259 2.71633 18.1259 3.75012C18.1259 4.7839 17.2851 5.62518 16.2519 5.62518C15.2186 5.62518 14.3778 4.7839 14.3778 3.75012C14.3778 2.71633 15.2186 1.87506 16.2519 1.87506Z" />
</svg>