<svg viewBox="0 0 24 24" xmlns="http://www.w3.org/2000/svg">
  <path
    d="M18.2519 9.50023C20.319 9.50023 22 7.81831 22 5.75012C22 3.68193 20.319 2 18.2519 2C16.1848 2 14.5037 3.68193 14.5037 5.75012C14.5037 6.02575 14.5356 6.29388 14.5925 6.55327L8.67729 9.66711C7.98951 8.80521 6.93316 8.2502 5.74813 8.2502C3.68103 8.2502 2 9.93212 2 12.0003C2 14.0685 3.68103 15.7504 5.74813 15.7504C6.93628 15.7504 7.9945 15.1929 8.68166 14.3273L14.1745 17.2186C14.1183 17.4842 14.0871 17.7592 14.0871 18.0411C14.0871 20.2237 15.8618 22 18.0432 22C20.2246 22 21.9994 20.2237 21.9994 18.0411C21.9994 15.8586 20.2246 14.0829 18.0432 14.0829C16.8145 14.0829 15.7144 14.6466 14.9885 15.5285L9.44128 12.6085C9.47376 12.4097 9.495 12.2072 9.495 11.9991C9.495 11.7884 9.47314 11.5828 9.44003 11.3815L15.4414 8.22269C16.1298 9.00459 17.1331 9.50023 18.2519 9.50023ZM18.0439 15.9586C19.192 15.9586 20.1259 16.893 20.1259 18.0418C20.1259 19.1905 19.192 20.1256 18.0439 20.1256C16.8957 20.1256 15.9618 19.1905 15.9618 18.0418C15.9618 16.893 16.8957 15.9586 18.0439 15.9586ZM5.74813 13.8754C4.71489 13.8754 3.87406 13.0341 3.87406 12.0003C3.87406 10.9665 4.71489 10.1253 5.74813 10.1253C6.78136 10.1253 7.62219 10.9665 7.62219 12.0003C7.62219 13.0341 6.78136 13.8754 5.74813 13.8754ZM18.2519 3.87506C19.2851 3.87506 20.1259 4.71633 20.1259 5.75012C20.1259 6.7839 19.2851 7.62518 18.2519 7.62518C17.2186 7.62518 16.3778 6.7839 16.3778 5.75012C16.3778 4.71633 17.2186 3.87506 18.2519 3.87506Z" />
</svg>