<svg viewBox="0 0 24 24" xmlns="http://www.w3.org/2000/svg">
  <path
    d="M18.9716 23.4002C19.2082 23.3834 19.4279 23.2655 19.5801 23.0801C19.7322 22.8947 19.7829 22.659 19.7322 22.4232L18.2277 15.3481L23.7215 10.4798C23.9752 10.2608 24.0596 9.92388 23.9581 9.62067C23.8568 9.31745 23.5694 9.09846 23.2482 9.06477L15.8442 8.25619L12.7847 1.6865C12.5819 1.26537 12.0578 1.08007 11.6352 1.28222C11.4662 1.36644 11.3141 1.50121 11.2295 1.6865L8.15304 8.25619L0.749127 9.04791C0.427953 9.08161 0.140586 9.30061 0.0391625 9.60382C-0.0622611 9.90704 0.0391625 10.2608 0.275816 10.4629L5.76959 15.3312L4.26514 22.4062C4.19752 22.7263 4.33276 23.0464 4.60321 23.2317C4.87368 23.417 5.22866 23.4338 5.51603 23.2823L11.9902 19.7111C18.6166 23.3496 18.7856 23.4002 18.9547 23.3834L18.9716 23.4002Z" />
</svg>