<svg viewBox="0 0 24 24" xmlns="http://www.w3.org/2000/svg">
  <path
    d="M9 3.5V1.5H15V3.5H9ZM11 14.5H13V8.5H11V14.5ZM12 22.5C10.7667 22.5 9.60417 22.2625 8.5125 21.7875C7.42083 21.3125 6.46667 20.6667 5.65 19.85C4.83333 19.0333 4.1875 18.0792 3.7125 16.9875C3.2375 15.8958 3 14.7333 3 13.5C3 12.2667 3.2375 11.1042 3.7125 10.0125C4.1875 8.92083 4.83333 7.96667 5.65 7.15C6.46667 6.33333 7.42083 5.6875 8.5125 5.2125C9.60417 4.7375 10.7667 4.5 12 4.5C13.0333 4.5 14.025 4.66667 14.975 5C15.925 5.33333 16.8167 5.81667 17.65 6.45L19.05 5.05L20.45 6.45L19.05 7.85C19.6833 8.68333 20.1667 9.575 20.5 10.525C20.8333 11.475 21 12.4667 21 13.5C21 14.7333 20.7625 15.8958 20.2875 16.9875C19.8125 18.0792 19.1667 19.0333 18.35 19.85C17.5333 20.6667 16.5792 21.3125 15.4875 21.7875C14.3958 22.2625 13.2333 22.5 12 22.5ZM12 20.5C13.9333 20.5 15.5833 19.8167 16.95 18.45C18.3167 17.0833 19 15.4333 19 13.5C19 11.5667 18.3167 9.91667 16.95 8.55C15.5833 7.18333 13.9333 6.5 12 6.5C10.0667 6.5 8.41667 7.18333 7.05 8.55C5.68333 9.91667 5 11.5667 5 13.5C5 15.4333 5.68333 17.0833 7.05 18.45C8.41667 19.8167 10.0667 20.5 12 20.5Z" />
</svg>