<svg viewBox="0 0 24 24" xmlns="http://www.w3.org/2000/svg">
  <path
    d="M16.0483 4.42939C15.8116 4.0195 15.2878 3.87856 14.8779 4.11507L3.61955 10.6151C3.20959 10.8518 3.06902 11.3764 3.30572 11.7863L4.04595 13.0684C6.77679 13.1593 8.49391 16.1341 7.20757 18.5445L7.94829 19.8275C8.185 20.2375 8.70958 20.378 9.11955 20.1413L20.3779 13.6413C20.7877 13.4046 20.9275 12.8805 20.6909 12.4706L19.9502 11.1876C17.2198 11.0961 15.5022 8.12177 16.7885 5.71151L16.0483 4.42939ZM15.1746 14.0587L15.1697 14.0502C14.8936 13.572 15.0576 12.9604 15.5357 12.6842C16.014 12.408 16.6256 12.5719 16.9018 13.0502L16.9066 13.0587C17.1825 13.5369 17.0188 14.1486 16.5406 14.4247C16.0625 14.7006 15.4508 14.5366 15.1746 14.0587ZM13.5496 11.2441L13.5447 11.2356C13.2686 10.7574 13.4326 10.1458 13.9107 9.8696C14.389 9.59346 15.0006 9.75733 15.2768 10.2356L15.2816 10.2441C15.5575 10.7223 15.3938 11.334 14.9156 11.6101C14.4375 11.886 13.8258 11.722 13.5496 11.2441ZM11.9246 8.4295L11.9197 8.42104C11.6436 7.94283 11.8076 7.33123 12.2857 7.05502C12.764 6.77888 13.3756 6.94275 13.6518 7.42104L13.6566 7.4295C13.9325 7.90773 13.7688 8.51946 13.2906 8.79553C12.8125 9.07139 12.2008 8.90739 11.9246 8.4295ZM18.8248 5.2384C19.0292 5.59247 18.9981 6.03532 18.7453 6.35666C17.7574 7.61212 18.7891 9.39906 20.3703 9.17124C20.775 9.11302 21.1741 9.3075 21.3785 9.66156L22.4229 11.4706C23.2119 12.8371 22.7443 14.5843 21.3779 15.3734L10.1196 21.8734C8.75301 22.6624 7.00524 22.1941 6.21624 20.8275L5.17181 19.0185C4.96736 18.6644 4.99924 18.2211 5.2521 17.8998C6.23962 16.6444 5.20804 14.8576 3.6271 15.0852C3.22238 15.1435 2.82255 14.9495 2.6181 14.5953L1.57367 12.7863C0.784687 11.4198 1.253 9.67199 2.61955 8.88301L13.8779 2.38301C15.2444 1.59421 16.9914 2.06293 17.7803 3.42939L18.8248 5.2384Z" />
</svg>