<svg viewBox="0 0 24 24" xmlns="http://www.w3.org/2000/svg">
  <path fill-rule="evenodd" clip-rule="evenodd"
    d="M19.0853 4.9065C17.2047 3.0332 14.7038 2.0011 12.0394 2C6.54914 2 2.08088 6.44569 2.07867 11.9098C2.07793 13.6565 2.53654 15.3616 3.40822 16.8645L1.99512 22L7.27544 20.6219C8.73039 21.4116 10.3684 21.8277 12.0353 21.8281H12.0395C17.5292 21.8281 21.9979 17.3821 22 11.9178C22.001 9.26954 20.966 6.77968 19.0853 4.9065ZM12.0394 20.1545H12.036C10.5504 20.1538 9.09353 19.7567 7.82225 19.0063L7.52007 18.8276L4.38665 19.6455L5.223 16.6059L5.0261 16.2942C4.19735 14.9827 3.75972 13.4668 3.76046 11.9104C3.76218 7.36878 7.47616 3.67383 12.0427 3.67383C14.254 3.67457 16.3327 4.53247 17.8957 6.08948C19.4588 7.6465 20.319 9.71607 20.3183 11.9171C20.3163 16.4592 16.6026 20.1545 12.0394 20.1545ZM16.5805 13.9851C16.3317 13.8611 15.108 13.2622 14.8798 13.1795C14.6519 13.0968 14.4857 13.0557 14.32 13.3035C14.154 13.5513 13.6771 14.1092 13.5319 14.2743C13.3866 14.4396 13.2416 14.4603 12.9927 14.3363C12.7437 14.2124 11.9418 13.9508 10.9911 13.1072C10.2513 12.4506 9.75188 11.6397 9.60661 11.3918C9.46159 11.1438 9.60539 11.0227 9.7158 10.8865C9.98522 10.5536 10.255 10.2046 10.3379 10.0394C10.421 9.87416 10.3794 9.72951 10.3171 9.6056C10.255 9.4817 9.75728 8.26283 9.54993 7.76685C9.34774 7.28419 9.14274 7.34938 8.98987 7.34181C8.84485 7.3346 8.67885 7.33314 8.51286 7.33314C8.34698 7.33314 8.07732 7.39503 7.84912 7.64307C7.62105 7.891 6.97817 8.49 6.97817 9.70888C6.97817 10.9278 7.86998 12.1052 7.99439 12.2705C8.11879 12.4358 9.74942 14.9371 12.246 16.0096C12.8398 16.2649 13.3033 16.4171 13.6648 16.5312C14.2611 16.7197 14.8035 16.6932 15.2324 16.6295C15.7107 16.5582 16.7048 16.0303 16.9124 15.452C17.1197 14.8734 17.1197 14.3777 17.0574 14.2743C16.9953 14.171 16.8293 14.1092 16.5805 13.9851Z" />
</svg>