<svg viewBox="0 0 24 24" xmlns="http://www.w3.org/2000/svg">
  <path
    d="M12 5.4C11.3714 5.4 10.8333 5.18458 10.3857 4.75375C9.9381 4.32292 9.71429 3.805 9.71429 3.2C9.71429 2.595 9.9381 2.07708 10.3857 1.64625C10.8333 1.21542 11.3714 1 12 1C12.6286 1 13.1667 1.21542 13.6143 1.64625C14.0619 2.07708 14.2857 2.595 14.2857 3.2C14.2857 3.805 14.0619 4.32292 13.6143 4.75375C13.1667 5.18458 12.6286 5.4 12 5.4ZM17.7143 23V17.5H12C11.3714 17.5 10.8333 17.2846 10.3857 16.8538C9.9381 16.4229 9.71429 15.905 9.71429 15.3V8.7C9.71429 8.095 9.9381 7.57708 10.3857 7.14625C10.8333 6.71542 11.3714 6.5 12 6.5C12.4571 6.5 12.8524 6.59625 13.1857 6.78875C13.519 6.98125 13.8762 7.28833 14.2571 7.71C15.3048 8.92 16.2524 9.74958 17.1 10.1987C17.9476 10.6479 18.9143 10.8817 20 10.9V13.1C18.9905 13.1 17.9714 12.8892 16.9429 12.4675C15.9143 12.0458 15.0286 11.5417 14.2857 10.955V14.75H17.7143C18.3429 14.75 18.881 14.9654 19.3286 15.3962C19.7762 15.8271 20 16.345 20 16.95V23H17.7143ZM9.71429 23C8.13333 23 6.78571 22.4637 5.67143 21.3913C4.55714 20.3188 4 19.0217 4 17.5C4 16.18 4.43333 15.0158 5.3 14.0075C6.16667 12.9992 7.25714 12.3667 8.57143 12.11V14.365C7.90476 14.6217 7.35714 15.0296 6.92857 15.5887C6.5 16.1479 6.28571 16.785 6.28571 17.5C6.28571 18.4167 6.61905 19.1958 7.28571 19.8375C7.95238 20.4792 8.7619 20.8 9.71429 20.8C10.4571 20.8 11.119 20.5938 11.7 20.1812C12.281 19.7687 12.7048 19.2417 12.9714 18.6H15.3143C15.0476 19.865 14.3905 20.9146 13.3429 21.7488C12.2952 22.5829 11.0857 23 9.71429 23Z" />
</svg>