<svg width="30" height="22" viewBox="0 0 30 22" fill="none" xmlns="http://www.w3.org/2000/svg">
<g clip-path="url(#clip0_5065_1412)">
<path d="M25.6245 0H4.07581C2.09232 0 0.484375 1.60794 0.484375 3.59144V17.9572C0.484375 19.9407 2.09232 21.5486 4.07581 21.5486H25.6245C27.6079 21.5486 29.2159 19.9407 29.2159 17.9572V3.59144C29.2159 1.60794 27.6079 0 25.6245 0Z" fill="#016FD0"/>
<path d="M6.04785 15.7129V11.438H10.8121L11.3233 12.0711L11.8513 11.438H29.1444V15.4181C29.1444 15.4181 28.6922 15.7086 28.1691 15.7129H18.5936L18.0173 15.039V15.7129H16.1288V14.5625C16.1288 14.5625 15.8708 14.7231 15.3131 14.7231H14.6703V15.7129H11.8109L11.3005 15.0662L10.7822 15.7129H6.04785Z" fill="white"/>
<path d="M0.484375 8.21554L1.55874 5.83594H3.41673L4.02645 7.1689V5.83594H6.33609L6.69909 6.79934L7.05096 5.83594H17.419V6.32029C17.419 6.32029 17.964 5.83594 18.8597 5.83594L22.2237 5.84712L22.8229 7.16262V5.83594H24.7558L25.2878 6.59158V5.83594H27.2383V10.1108H25.2878L24.778 9.35272V10.1108H21.9382L21.6526 9.43694H20.8891L20.6082 10.1108H18.6824C17.9116 10.1108 17.419 9.63635 17.419 9.63635V10.1108H14.5152L13.9389 9.43694V10.1108H3.14148L2.8561 9.43694H2.0951L1.81174 10.1108H0.484375V8.21554Z" fill="white"/>
<path d="M1.93931 6.36279L0.490234 9.56366H1.43366L1.70103 8.92273H3.2554L3.52139 9.56366H4.48559L3.0379 6.36279H1.93931ZM2.47544 7.1077L2.94924 8.22778H2.00027L2.47544 7.1077Z" fill="#016FD0"/>
<path d="M4.58496 9.56371V6.36279L5.92561 6.36751L6.7054 8.43124L7.46652 6.36279H8.79643V9.56371H7.95414V7.20512L7.06127 9.56371H6.3226L5.42725 7.20512V9.56371H4.58496Z" fill="#016FD0"/>
<path d="M9.37305 9.56371V6.36279H12.1216V7.07879H10.2242V7.62631H12.0773V8.3002H10.2242V8.86877H12.1216V9.56371H9.37305Z" fill="#016FD0"/>
<path d="M12.6084 6.36279V9.56366H13.4507V8.42652H13.8053L14.8153 9.56366H15.8446L14.7363 8.38441C15.1911 8.34792 15.6604 7.97706 15.6604 7.40121C15.6604 6.72764 15.1039 6.36279 14.4828 6.36279H12.6084ZM13.4507 7.07875H14.4135C14.6445 7.07875 14.8125 7.25042 14.8125 7.41571C14.8125 7.62837 14.5948 7.75264 14.426 7.75264H13.4507V7.07875Z" fill="#016FD0"/>
<path d="M16.8649 9.56371H16.0049V6.36279H16.8649V9.56371Z" fill="#016FD0"/>
<path d="M18.9046 9.56371H18.7189C17.8208 9.56371 17.2754 8.89139 17.2754 7.97638C17.2754 7.03879 17.8146 6.36279 18.9489 6.36279H19.8799V7.1209H18.9148C18.4544 7.1209 18.1288 7.46227 18.1288 7.98428C18.1288 8.60421 18.5011 8.86454 19.0376 8.86454H19.2592L18.9046 9.56371Z" fill="#016FD0"/>
<path d="M20.7371 6.36279L19.2881 9.56366H20.2315L20.4989 8.92273H22.0532L22.3192 9.56366H23.2834L21.8358 6.36279H20.7371ZM21.2733 7.1077L21.7471 8.22778H20.7981L21.2733 7.1077Z" fill="#016FD0"/>
<path d="M23.3818 9.56371V6.36279H24.4527L25.8201 8.37386V6.36279H26.6624V9.56371H25.6261L24.2242 7.49993V9.56371H23.3818Z" fill="#016FD0"/>
<path d="M6.62402 15.1658V11.9648H9.37255V12.6808H7.47515V13.2284H9.3282V13.9022H7.47515V14.4708H9.37255V15.1658H6.62402Z" fill="#016FD0"/>
<path d="M20.0918 15.1658V11.9648H22.8403V12.6808H20.943V13.2284H22.7871V13.9022H20.943V14.4708H22.8403V15.1658H20.0918Z" fill="#016FD0"/>
<path d="M9.47914 15.1658L10.8174 13.585L9.44727 11.9648H10.5084L11.3244 12.9665L12.1432 11.9648H13.1628L11.8107 13.5653L13.1514 15.1658H12.0904L11.2981 14.18L10.5251 15.1658H9.47914Z" fill="#016FD0"/>
<path d="M13.251 11.9648V15.1658H14.1154V14.1549H15.0021C15.7523 14.1549 16.3209 13.7768 16.3209 13.0415C16.3209 12.4323 15.8749 11.9648 15.1115 11.9648H13.251ZM14.1154 12.6887H15.0492C15.2915 12.6887 15.4648 12.8298 15.4648 13.0573C15.4648 13.2709 15.2924 13.4258 15.0464 13.4258H14.1154V12.6887Z" fill="#016FD0"/>
<path d="M16.6885 11.9648V15.1658H17.5308V14.0286H17.8854L18.8953 15.1658H19.9246L18.8164 13.9865C19.2712 13.95 19.7404 13.5791 19.7404 13.0033C19.7404 12.3297 19.1839 11.9648 18.5628 11.9648H16.6885ZM17.5308 12.6808H18.4936C18.7246 12.6808 18.8926 12.8525 18.8926 13.0178C18.8926 13.2304 18.6749 13.3547 18.5061 13.3547H17.5308V12.6808Z" fill="#016FD0"/>
<path d="M23.23 15.1658V14.4708H24.9157C25.1651 14.4708 25.2731 14.3427 25.2731 14.2023C25.2731 14.0678 25.1655 13.9317 24.9157 13.9317H24.154C23.4918 13.9317 23.123 13.5484 23.123 12.973C23.123 12.4598 23.4607 11.9648 24.4447 11.9648H26.085L25.7303 12.685H24.3117C24.0405 12.685 23.957 12.8202 23.957 12.9493C23.957 13.082 24.0602 13.2284 24.2674 13.2284H25.0653C25.8034 13.2284 26.1237 13.6261 26.1237 14.147C26.1237 14.707 25.7668 15.1658 25.0251 15.1658H23.23Z" fill="#016FD0"/>
<path d="M26.3228 15.1658V14.4708H28.0085C28.2579 14.4708 28.3659 14.3427 28.3659 14.2023C28.3659 14.0678 28.2582 13.9317 28.0085 13.9317H27.2467C26.5846 13.9317 26.2158 13.5484 26.2158 12.973C26.2158 12.4598 26.5536 11.9648 27.5375 11.9648H29.1777L28.8231 12.685H27.4045C27.1333 12.685 27.0498 12.8202 27.0498 12.9493C27.0498 13.082 27.153 13.2284 27.3601 13.2284H28.1581C28.8962 13.2284 29.2165 13.6261 29.2165 14.147C29.2165 14.707 28.8596 15.1658 28.1179 15.1658H26.3228Z" fill="#016FD0"/>
</g>
<defs>
<clipPath id="clip0_5065_1412">
<rect width="28.7315" height="21.5486" fill="white" transform="translate(0.484375)"/>
</clipPath>
</defs>
</svg>
