<svg width="29" height="22" viewBox="0 0 29 22" fill="none" xmlns="http://www.w3.org/2000/svg">
<g clip-path="url(#clip0_5065_1397)">
<path d="M25.2458 0.449219H3.6972C1.96164 0.449219 0.554688 1.85617 0.554688 3.59173V17.9575C0.554688 19.693 1.96164 21.1 3.6972 21.1H25.2458C26.9814 21.1 28.3883 19.693 28.3883 17.9575V3.59173C28.3883 1.85617 26.9814 0.449219 25.2458 0.449219Z" fill="white"/>
<path d="M25.2458 0.449219H3.6972C1.96164 0.449219 0.554688 1.85617 0.554688 3.59173V17.9575C0.554688 19.693 1.96164 21.1 3.6972 21.1H25.2458C26.9814 21.1 28.3883 19.693 28.3883 17.9575V3.59173C28.3883 1.85617 26.9814 0.449219 25.2458 0.449219Z" stroke="black" stroke-width="0.89786"/>
<path d="M7.63856 7.44344C7.88408 7.13179 8.05067 6.7133 8.00672 6.28564C7.64731 6.30378 7.20875 6.52627 6.95484 6.83819C6.72682 7.1053 6.52503 7.5413 6.57764 7.95104C6.9811 7.98655 7.38419 7.74637 7.63856 7.44344ZM8.00214 8.03104C7.41624 7.99557 6.91807 8.3685 6.63825 8.3685C6.35834 8.3685 5.92984 8.04886 5.46645 8.05748C4.86327 8.06646 4.3036 8.41259 3.9975 8.96306C3.36794 10.0643 3.83136 11.6979 4.44357 12.5948C4.74089 13.0385 5.09918 13.5271 5.57132 13.5096C6.01738 13.4918 6.19224 13.2164 6.73446 13.2164C7.27627 13.2164 7.43375 13.5096 7.90598 13.5007C8.39568 13.4918 8.7018 13.0567 8.99908 12.6126C9.34018 12.1067 9.4798 11.6183 9.48855 11.5915C9.4798 11.5826 8.54432 11.2184 8.53565 10.1263C8.52681 9.21186 9.2701 8.77694 9.30507 8.74996C8.88532 8.11988 8.22953 8.04886 8.00214 8.03104Z" fill="black"/>
<path d="M13.8434 6.79346C15.1168 6.79346 16.0037 7.68436 16.0037 8.98145C16.0037 10.2831 15.0987 11.1787 13.8116 11.1787H12.4016V13.4543H11.3828V6.79346H13.8434ZM12.4016 10.3108H13.5704C14.4574 10.3108 14.9622 9.8262 14.9622 8.98608C14.9622 8.14604 14.4574 7.66595 13.575 7.66595H12.4016V10.3108ZM16.2564 12.0742C16.2564 11.2202 16.8977 10.7309 18.0802 10.6571L19.3491 10.5786V10.2093C19.3491 9.66926 18.9989 9.37382 18.3759 9.37382C17.8619 9.37382 17.4889 9.64156 17.4116 10.0524H16.4928C16.5202 9.18917 17.3207 8.56148 18.4031 8.56148C19.5675 8.56148 20.327 9.18001 20.327 10.1401V13.4543H19.3855V12.6558H19.3628C19.0944 13.1774 18.5032 13.505 17.8619 13.505C16.9159 13.505 16.2564 12.9327 16.2564 12.0742ZM19.3491 11.6449V11.2709L18.2166 11.3448C17.5799 11.3863 17.2479 11.6264 17.2479 12.0464C17.2479 12.4526 17.5936 12.7158 18.1348 12.7158C18.8261 12.7158 19.3491 12.2679 19.3491 11.6449ZM21.1925 15.236V14.4376C21.2562 14.4467 21.4108 14.4559 21.4927 14.4559C21.9429 14.4559 22.1976 14.2622 22.3523 13.7636L22.4433 13.4681L20.7195 8.62146H21.7838L22.9845 12.5541H23.0072L24.2079 8.62146H25.245L23.4575 13.7128C23.0482 14.8806 22.5797 15.2638 21.5882 15.2638C21.5109 15.2638 21.2607 15.2546 21.1925 15.236Z" fill="black"/>
</g>
<defs>
<clipPath id="clip0_5065_1397">
<rect width="28.7315" height="21.5486" fill="white" transform="translate(0.105469)"/>
</clipPath>
</defs>
</svg>
