<svg width="29" height="22" viewBox="0 0 29 22" fill="none" xmlns="http://www.w3.org/2000/svg">
<g clip-path="url(#clip0_5065_1381)">
<path d="M25.1401 0H3.59144C1.60794 0 0 1.60794 0 3.59144V17.9572C0 19.9407 1.60794 21.5486 3.59144 21.5486H25.1401C27.1236 21.5486 28.7315 19.9407 28.7315 17.9572V3.59144C28.7315 1.60794 27.1236 0 25.1401 0Z" fill="#E664A5"/>
<path d="M6.73438 5.03931V16.5096C6.73438 17.0608 7.18115 17.5084 7.73181 17.5084H14.5795C19.7541 17.5084 21.998 14.6073 21.998 10.7611C21.998 6.92962 19.7541 4.04053 14.5795 4.04053H7.73086C7.18205 4.04053 6.73438 4.48721 6.73438 5.03931Z" fill="white"/>
<path d="M14.577 16.5896H8.62194C8.36884 16.5901 8.12588 16.4896 7.94635 16.3102C7.76678 16.1308 7.66527 15.887 7.66406 15.6324V5.91551C7.66429 5.78923 7.68925 5.6642 7.73751 5.54762C7.78577 5.43103 7.85643 5.32513 7.94536 5.23597C8.0343 5.14686 8.13984 5.0762 8.25593 5.02807C8.37202 4.97999 8.49638 4.95534 8.62194 4.95557H14.577C20.225 4.95557 21.0689 8.5919 21.0689 10.7596C21.0689 14.5199 18.7634 16.5896 14.577 16.5896ZM8.62194 5.27741C8.45319 5.27718 8.29126 5.34416 8.17149 5.46376C8.05176 5.58335 7.98402 5.74577 7.98303 5.91551V15.6334C7.98303 15.9857 8.26891 16.2715 8.62194 16.2715H14.577C18.5574 16.2715 20.7499 14.3146 20.7499 10.7615C20.7499 5.9895 16.8825 5.27741 14.577 5.27741H8.62194Z" fill="black"/>
<path d="M11.3154 6.85637V15.3303H15.0008C18.3488 15.3303 19.7994 13.4363 19.7994 10.7655C19.7994 8.20662 18.3488 6.21826 15.0008 6.21826H11.9534C11.7848 6.21804 11.6229 6.28506 11.5034 6.40466C11.3838 6.5243 11.3162 6.68672 11.3154 6.85637Z" fill="#CC0066"/>
<path d="M18.3416 9.62155V11.2714H19.327V11.6459H17.8976V9.62061L18.3416 9.62155ZM16.8616 9.62155L17.6181 11.6459H17.1567L17.004 11.1965H16.2465L16.0884 11.6459H15.6389L16.4046 9.62061L16.8616 9.62155ZM16.8873 10.8626L16.6317 10.12H16.6262L16.3633 10.8626H16.8873ZM15.3383 9.62155V9.99515H14.2701V10.4298H15.25V10.7748H14.2701V11.2714H15.3613V11.6459H13.8261V9.62061L15.3383 9.62155ZM12.6136 9.62155C12.7377 9.62061 12.8618 9.64094 12.9776 9.6835C13.0907 9.72435 13.1931 9.79053 13.277 9.87703C13.361 9.96354 13.4242 10.0681 13.4621 10.1829C13.5505 10.4576 13.555 10.7527 13.4749 11.03C13.4405 11.1485 13.3824 11.2587 13.304 11.3537C13.2255 11.4456 13.1275 11.5186 13.0172 11.5673C12.8897 11.6221 12.7522 11.6489 12.6136 11.6459H11.7412V9.62061H12.6145L12.6136 9.62155ZM12.5823 11.2714C12.6467 11.2714 12.7092 11.2612 12.7698 11.2399C12.8308 11.2185 12.8859 11.1831 12.9307 11.1364C12.9816 11.0826 13.0204 11.0186 13.0447 10.9486C13.0753 10.8572 13.0896 10.7611 13.087 10.6647C13.087 10.5722 13.0778 10.4798 13.0576 10.3882C13.0397 10.3115 13.0055 10.2395 12.9574 10.1773C12.9101 10.1173 12.848 10.0707 12.7772 10.0423C12.6892 10.0088 12.5955 9.99313 12.5014 9.99609H12.1843V11.2714H12.5823Z" fill="white"/>
<path d="M9.65029 12.1045C10.0409 12.1045 10.3572 12.4208 10.3572 12.8111V15.3303C9.57581 15.3303 8.94336 14.6967 8.94336 13.9153V12.8111C8.94323 12.7178 8.9615 12.6254 8.9971 12.5393C9.0327 12.4531 9.08491 12.3749 9.15072 12.3092C9.21658 12.2435 9.29469 12.1916 9.38057 12.1565C9.4665 12.1213 9.55848 12.1037 9.65119 12.1045H9.65029Z" fill="black"/>
<path d="M9.64985 11.5674C10.1651 11.5674 10.5829 11.1491 10.5829 10.6333C10.5829 10.1174 10.1651 9.69922 9.64985 9.69922C9.13453 9.69922 8.7168 10.1174 8.7168 10.6333C8.7168 11.1491 9.13453 11.5674 9.64985 11.5674Z" fill="black"/>
</g>
<defs>
<clipPath id="clip0_5065_1381">
<rect width="28.7315" height="21.5486" fill="white"/>
</clipPath>
</defs>
</svg>
