<svg width="30" height="22" viewBox="0 0 30 22" fill="none" xmlns="http://www.w3.org/2000/svg">
<g clip-path="url(#clip0_5065_1407)">
<path d="M26.0034 0H4.45472C2.47122 0 0.863281 1.60794 0.863281 3.59144V17.9572C0.863281 19.9407 2.47122 21.5486 4.45472 21.5486H26.0034C27.9869 21.5486 29.5948 19.9407 29.5948 17.9572V3.59144C29.5948 1.60794 27.9869 0 26.0034 0Z" fill="black"/>
<path d="M12.5362 15.2642C15.0155 15.2642 17.0254 13.2543 17.0254 10.7749C17.0254 8.29559 15.0155 6.28564 12.5362 6.28564C10.0568 6.28564 8.04688 8.29559 8.04688 10.7749C8.04688 13.2543 10.0568 15.2642 12.5362 15.2642Z" fill="#E7001A"/>
<path d="M17.9239 15.2642C20.4032 15.2642 22.4131 13.2543 22.4131 10.7749C22.4131 8.29559 20.4032 6.28564 17.9239 6.28564C15.4445 6.28564 13.4346 8.29559 13.4346 10.7749C13.4346 13.2543 15.4445 15.2642 17.9239 15.2642Z" fill="#F49B1C"/>
<path opacity="0.3" fill-rule="evenodd" clip-rule="evenodd" d="M15.2303 7.18311C16.3207 8.00213 17.026 9.3061 17.026 10.7749C17.026 12.2436 16.3207 13.5476 15.2303 14.3666C14.1399 13.5476 13.4346 12.2436 13.4346 10.7749C13.4346 9.3061 14.1399 8.00213 15.2303 7.18311Z" fill="#E7001A"/>
</g>
<defs>
<clipPath id="clip0_5065_1407">
<rect width="28.7315" height="21.5486" fill="white" transform="translate(0.863281)"/>
</clipPath>
</defs>
</svg>
