<svg width="30" height="22" viewBox="0 0 30 22" fill="none" xmlns="http://www.w3.org/2000/svg">
<g clip-path="url(#clip0_5065_1402)">
<path d="M25.8666 0H4.318C2.3345 0 0.726562 1.60794 0.726562 3.59144V17.9572C0.726562 19.9407 2.3345 21.5486 4.318 21.5486H25.8666C27.8501 21.5486 29.4581 19.9407 29.4581 17.9572V3.59144C29.4581 1.60794 27.8501 0 25.8666 0Z" fill="#0071C0"/>
<path d="M19.0535 7.9043C19.0426 7.97357 19.0303 8.04432 19.0164 8.11704C18.5387 10.5735 16.9045 11.4222 14.8173 11.4222H13.7546C13.4993 11.4222 13.2843 11.6078 13.2445 11.86L12.7004 15.3164L12.5463 16.2961C12.5205 16.4617 12.6479 16.611 12.8147 16.611H14.6995C14.9227 16.611 15.1124 16.4485 15.1475 16.228L15.166 16.1321L15.5209 13.8764L15.5437 13.7526C15.5784 13.5314 15.7684 13.3689 15.9916 13.3689H16.2735C18.0996 13.3689 19.5292 12.6263 19.947 10.4772C20.1216 9.57952 20.0312 8.8299 19.5694 8.30272C19.4296 8.14376 19.2562 8.01186 19.0535 7.9043Z" fill="#99C6E5"/>
<path d="M18.5544 7.70394C18.4814 7.68271 18.4061 7.66336 18.3289 7.64594C18.2513 7.62893 18.1717 7.61384 18.0898 7.60069C17.8033 7.55427 17.4893 7.53223 17.153 7.53223H14.314C14.2441 7.53223 14.1777 7.54807 14.1182 7.57672C13.9873 7.63975 13.89 7.76392 13.8664 7.91593L13.2625 11.7475L13.2451 11.8593C13.2849 11.6071 13.5 11.4214 13.7552 11.4214H14.8179C16.9051 11.4214 18.5393 10.5728 19.017 8.11628C19.0309 8.04356 19.0433 7.97281 19.0541 7.90354C18.9332 7.83934 18.8023 7.78443 18.6614 7.73761C18.6266 7.72603 18.5907 7.71481 18.5544 7.70394Z" fill="#CCE2F2"/>
<path d="M13.8668 7.91588C13.8903 7.76387 13.9877 7.63969 14.1186 7.57666C14.178 7.54802 14.2444 7.53218 14.3143 7.53218H17.1533C17.4897 7.53218 17.8037 7.55422 18.0902 7.60064C18.172 7.61379 18.2516 7.62887 18.3292 7.64589C18.4064 7.66331 18.4817 7.68266 18.5547 7.70389C18.591 7.71475 18.6269 7.72598 18.6617 7.73756C18.8026 7.78438 18.9335 7.83929 19.0544 7.90348C19.1965 6.9957 19.0537 6.37762 18.5636 5.81794C18.0234 5.20178 17.0483 4.93799 15.8007 4.93799H12.1785C11.9237 4.93799 11.7062 5.12367 11.6669 5.37623L10.1582 14.9551C10.1284 15.1446 10.2744 15.3155 10.4651 15.3155L12.7013 15.3156L13.2628 11.7474L13.8668 7.91588Z" fill="white"/>
</g>
<defs>
<clipPath id="clip0_5065_1402">
<rect width="28.7315" height="21.5486" fill="white" transform="translate(0.726562)"/>
</clipPath>
</defs>
</svg>
