<svg width="29" height="22" viewBox="0 0 29 22" fill="none" xmlns="http://www.w3.org/2000/svg">
<g clip-path="url(#clip0_5065_1394)">
<path d="M25.3823 0H3.83363C1.85013 0 0.242188 1.60794 0.242188 3.59144V17.9572C0.242188 19.9407 1.85013 21.5486 3.83363 21.5486H25.3823C27.3658 21.5486 28.9737 19.9407 28.9737 17.9572V3.59144C28.9737 1.60794 27.3658 0 25.3823 0Z" fill="#1B16E6"/>
<path d="M14.9775 9.47943C14.9652 10.48 15.8412 11.0384 16.5013 11.3703C17.1794 11.711 17.4072 11.9294 17.4046 12.234C17.3994 12.7002 16.8637 12.9059 16.3622 12.9139C15.4873 12.9279 14.9787 12.6701 14.5743 12.4751L14.2592 13.9973C14.6649 14.1903 15.4162 14.3586 16.1952 14.366C18.0239 14.366 19.2203 13.4342 19.2268 11.9895C19.2338 10.1561 16.7699 10.0545 16.7866 9.23498C16.7925 8.9865 17.0222 8.72136 17.5256 8.65389C17.7748 8.61982 18.4625 8.59378 19.2423 8.96446L19.5483 7.4917C19.1291 7.33404 18.59 7.18311 17.919 7.18311C16.1978 7.18311 14.9872 8.12756 14.9775 9.47943ZM22.4892 7.31002C22.1553 7.31002 21.8739 7.51105 21.7483 7.81964L19.1361 14.2578H20.9635L21.3271 13.2205H23.5602L23.7711 14.2578H25.3816L23.9762 7.31002H22.4892ZM22.7448 9.1869L23.2722 11.7958H21.8279L22.7448 9.1869ZM12.7619 7.31002L11.3215 14.2578H13.0628L14.5025 7.31002H12.7619ZM10.1859 7.31002L8.37349 12.0389L7.64034 8.01803C7.55428 7.56914 7.21457 7.31002 6.83734 7.31002H3.87442L3.83301 7.51172C4.44125 7.64797 5.1323 7.86772 5.55097 8.10283C5.80722 8.24644 5.88035 8.37201 5.96444 8.71333L7.35307 14.2578H9.19332L12.0145 7.31002H10.1859Z" fill="white"/>
</g>
<defs>
<clipPath id="clip0_5065_1394">
<rect width="28.7315" height="21.5486" fill="white" transform="translate(0.242188)"/>
</clipPath>
</defs>
</svg>
